<?xml version="1.0" encoding="UTF-8" standalone="no"?>
<!DOCTYPE svg PUBLIC "-//W3C//DTD SVG 1.1//EN" "http://www.w3.org/Graphics/SVG/1.1/DTD/svg11.dtd">
<!-- Generated by Microsoft Visio, SVG Export serial-communication-handshake-model.svg Page-1 -->
<svg xmlns="http://www.w3.org/2000/svg" xmlns:xlink="http://www.w3.org/1999/xlink" xmlns:ev="http://www.w3.org/2001/xml-events"
		xmlns:v="http://schemas.microsoft.com/visio/2003/SVGExtensions/" width="9.06092in" height="5.09064in"
		viewBox="0 0 652.386 366.526" xml:space="preserve" color-interpolation-filters="sRGB" class="st6">
	<v:documentProperties v:langID="1033" v:viewMarkup="false"/>

	<style type="text/css">
	<![CDATA[
		.st1 {fill:none;stroke:none;stroke-linecap:round;stroke-linejoin:round;stroke-width:0.75}
		.st2 {fill:#000000;font-family:Georgia;font-size:1.5em}
		.st3 {stroke:#000000;stroke-linecap:round;stroke-linejoin:round;stroke-width:0.75}
		.st4 {marker-start:url(#mrkr10-167);stroke:#000000;stroke-linecap:round;stroke-linejoin:round;stroke-width:0.75}
		.st5 {fill:#000000;fill-opacity:1;stroke:#000000;stroke-opacity:1;stroke-width:0.18796992481203}
		.st6 {fill:none;fill-rule:evenodd;font-size:12px;overflow:visible;stroke-linecap:square;stroke-miterlimit:3}
	]]>
	</style>

	<defs id="Markers">
		<g id="lend10">
			<path
					d="M 0 0.75 C -0.414214 0.75 -0.75 0.414214 -0.75 0 -0.75 -0.414214 -0.414214 -0.75 0 -0.75 0.414214 -0.75 0.75 -0.414214 0.75 0 0.75 0.414214 0.414214 0.75 0 0.75 Z "
					style="stroke:none"/>
		</g>
		<marker id="mrkr10-167" class="st5" v:arrowType="10" v:arrowSize="3" v:setback="3.51" refX="3.51" orient="auto"
				markerUnits="strokeWidth" overflow="visible">
			<use xlink:href="#lend10" transform="scale(5.32) "/>
		</marker>
	</defs>
	<g v:mID="0" v:index="1" v:groupContext="foregroundPage">
		<title>Page-1</title>
		<v:pageProperties v:drawingScale="1" v:pageScale="1" v:drawingUnits="19" v:shadowOffsetX="9" v:shadowOffsetY="-9"/>
		<g id="group73-1" transform="translate(5.82771,0)" v:mID="73" v:groupContext="group">
			<title>Sheet.73</title>
			<g id="group21-2" v:mID="21" v:groupContext="group">
				<title>Sheet.21</title>
				<g id="shape2-3" v:mID="2" v:groupContext="shape" transform="translate(5.94372,-344.376)">
					<title>Sheet.2</title>
					<desc>TD (Transmit Data)</desc>
					<v:textBlock v:margins="rect(4,4,4,4)"/>
					<v:textRect cx="112.931" cy="355.639" width="225.87" height="21.7751"/>
					<rect x="0" y="344.751" width="225.861" height="21.7751" class="st1"/>
					<text x="33.94" y="361.04" class="st2" v:langID="1033"><v:paragraph v:horizAlign="1"/><v:tabList/>TD (Transmit Data)</text>				</g>
				<g id="shape4-6" v:mID="4" v:groupContext="shape" transform="translate(5.94372,-301.329)">
					<title>Sheet.4</title>
					<desc>RD (Receive Data)</desc>
					<v:textBlock v:margins="rect(4,4,4,4)"/>
					<v:textRect cx="112.931" cy="355.639" width="225.87" height="21.7751"/>
					<rect x="0" y="344.751" width="225.861" height="21.7751" class="st1"/>
					<text x="39.3" y="361.04" class="st2" v:langID="1033"><v:paragraph v:horizAlign="1"/><v:tabList/>RD (Receive Data)</text>				</g>
				<g id="shape5-9" v:mID="5" v:groupContext="shape" transform="translate(5.94372,-258.282)">
					<title>Sheet.5</title>
					<desc>RTS (Ready To Send)</desc>
					<v:textBlock v:margins="rect(4,4,4,4)"/>
					<v:textRect cx="112.931" cy="355.639" width="225.87" height="21.7751"/>
					<rect x="0" y="344.751" width="225.861" height="21.7751" class="st1"/>
					<text x="27.63" y="361.04" class="st2" v:langID="1033"><v:paragraph v:horizAlign="1"/><v:tabList/>RTS (Ready To Send)</text>				</g>
				<g id="shape6-12" v:mID="6" v:groupContext="shape" transform="translate(5.94372,-215.235)">
					<title>Sheet.6</title>
					<desc>CTS (Clear To Send)</desc>
					<v:textBlock v:margins="rect(4,4,4,4)"/>
					<v:textRect cx="112.931" cy="355.639" width="225.87" height="21.7751"/>
					<rect x="0" y="344.751" width="225.861" height="21.7751" class="st1"/>
					<text x="32.04" y="361.04" class="st2" v:langID="1033"><v:paragraph v:horizAlign="1"/><v:tabList/>CTS (Clear To Send)</text>				</g>
				<g id="shape7-15" v:mID="7" v:groupContext="shape" transform="translate(5.94372,-172.188)">
					<title>Sheet.7</title>
					<desc>DSR (Data Set Ready)</desc>
					<v:textBlock v:margins="rect(4,4,4,4)"/>
					<v:textRect cx="112.931" cy="355.639" width="225.87" height="21.7751"/>
					<rect x="0" y="344.751" width="225.861" height="21.7751" class="st1"/>
					<text x="25.34" y="361.04" class="st2" v:langID="1033"><v:paragraph v:horizAlign="1"/><v:tabList/>DSR (Data Set Ready)</text>				</g>
				<g id="shape8-18" v:mID="8" v:groupContext="shape" transform="translate(-5.45271,-129.141)">
					<title>Sheet.8</title>
					<desc>DTR (Data Terminal Ready)</desc>
					<v:textBlock v:margins="rect(4,4,4,4)"/>
					<v:textRect cx="122.048" cy="355.639" width="244.1" height="21.7751"/>
					<rect x="0" y="344.751" width="244.096" height="21.7751" class="st1"/>
					<text x="9.85" y="361.04" class="st2" v:langID="1033"><v:paragraph v:horizAlign="1"/><v:tabList/>DTR (Data Terminal Ready)</text>				</g>
				<g id="shape9-21" v:mID="9" v:groupContext="shape" transform="translate(5.94372,-86.094)">
					<title>Sheet.9</title>
					<desc>DCD (Data Carrier Decect)</desc>
					<v:textBlock v:margins="rect(4,4,4,4)"/>
					<v:textRect cx="112.931" cy="355.639" width="225.87" height="21.7751"/>
					<rect x="0" y="344.751" width="225.861" height="21.7751" class="st1"/>
					<text x="6.4" y="361.04" class="st2" v:langID="1033"><v:paragraph v:horizAlign="1"/><v:tabList/>DCD (Data Carrier Decect)</text>				</g>
				<g id="shape11-24" v:mID="11" v:groupContext="shape" transform="translate(252.608,-344.376)">
					<title>Sheet.11</title>
					<desc>3</desc>
					<v:textBlock v:margins="rect(4,4,4,4)"/>
					<v:textRect cx="13.3734" cy="355.639" width="26.75" height="21.7751"/>
					<rect x="0" y="344.751" width="26.7467" height="21.7751" class="st1"/>
					<text x="8.41" y="361.04" class="st2" v:langID="1033"><v:paragraph v:horizAlign="1"/><v:tabList/>3</text>				</g>
				<g id="shape12-27" v:mID="12" v:groupContext="shape" transform="translate(252.608,-301.329)">
					<title>Sheet.12</title>
					<desc>2</desc>
					<v:textBlock v:margins="rect(4,4,4,4)"/>
					<v:textRect cx="13.3734" cy="355.639" width="26.75" height="21.7751"/>
					<rect x="0" y="344.751" width="26.7467" height="21.7751" class="st1"/>
					<text x="8.35" y="361.04" class="st2" v:langID="1033"><v:paragraph v:horizAlign="1"/><v:tabList/>2</text>				</g>
				<g id="shape13-30" v:mID="13" v:groupContext="shape" transform="translate(252.608,-258.282)">
					<title>Sheet.13</title>
					<desc>7</desc>
					<v:textBlock v:margins="rect(4,4,4,4)"/>
					<v:textRect cx="13.3734" cy="355.639" width="26.75" height="21.7751"/>
					<rect x="0" y="344.751" width="26.7467" height="21.7751" class="st1"/>
					<text x="8.85" y="361.04" class="st2" v:langID="1033"><v:paragraph v:horizAlign="1"/><v:tabList/>7</text>				</g>
				<g id="shape14-33" v:mID="14" v:groupContext="shape" transform="translate(252.608,-215.235)">
					<title>Sheet.14</title>
					<desc>8</desc>
					<v:textBlock v:margins="rect(4,4,4,4)"/>
					<v:textRect cx="13.3734" cy="355.639" width="26.75" height="21.7751"/>
					<rect x="0" y="344.751" width="26.7467" height="21.7751" class="st1"/>
					<text x="8.01" y="361.04" class="st2" v:langID="1033"><v:paragraph v:horizAlign="1"/><v:tabList/>8</text>				</g>
				<g id="shape15-36" v:mID="15" v:groupContext="shape" transform="translate(252.608,-172.188)">
					<title>Sheet.15</title>
					<desc>6</desc>
					<v:textBlock v:margins="rect(4,4,4,4)"/>
					<v:textRect cx="13.3734" cy="355.639" width="26.75" height="21.7751"/>
					<rect x="0" y="344.751" width="26.7467" height="21.7751" class="st1"/>
					<text x="8.28" y="361.04" class="st2" v:langID="1033"><v:paragraph v:horizAlign="1"/><v:tabList/>6</text>				</g>
				<g id="shape16-39" v:mID="16" v:groupContext="shape" transform="translate(252.608,-129.141)">
					<title>Sheet.16</title>
					<desc>4</desc>
					<v:textBlock v:margins="rect(4,4,4,4)"/>
					<v:textRect cx="13.3734" cy="355.639" width="26.75" height="21.7751"/>
					<rect x="0" y="344.751" width="26.7467" height="21.7751" class="st1"/>
					<text x="8.29" y="361.04" class="st2" v:langID="1033"><v:paragraph v:horizAlign="1"/><v:tabList/>4</text>				</g>
				<g id="shape17-42" v:mID="17" v:groupContext="shape" transform="translate(252.608,-86.094)">
					<title>Sheet.17</title>
					<desc>1</desc>
					<v:textBlock v:margins="rect(4,4,4,4)"/>
					<v:textRect cx="13.3734" cy="355.639" width="26.75" height="21.7751"/>
					<rect x="0" y="344.751" width="26.7467" height="21.7751" class="st1"/>
					<text x="9.51" y="361.04" class="st2" v:langID="1033"><v:paragraph v:horizAlign="1"/><v:tabList/>1</text>				</g>
				<g id="shape19-45" v:mID="19" v:groupContext="shape" transform="translate(-2.08695,-43.7149)">
					<title>Sheet.19</title>
					<desc>GND (Ground)</desc>
					<v:textBlock v:margins="rect(4,4,4,4)"/>
					<v:textRect cx="112.931" cy="355.639" width="225.87" height="21.7751"/>
					<rect x="0" y="344.751" width="225.861" height="21.7751" class="st1"/>
					<text x="53.11" y="361.04" class="st2" v:langID="1033"><v:paragraph v:horizAlign="1"/><v:tabList/>GND (Ground)</text>				</g>
				<g id="shape20-48" v:mID="20" v:groupContext="shape" transform="translate(250.521,-43.7149)">
					<title>Sheet.20</title>
					<desc>5</desc>
					<v:textBlock v:margins="rect(4,4,4,4)"/>
					<v:textRect cx="13.3734" cy="355.639" width="26.75" height="21.7751"/>
					<rect x="0" y="344.751" width="26.7467" height="21.7751" class="st1"/>
					<text x="8.62" y="361.04" class="st2" v:langID="1033"><v:paragraph v:horizAlign="1"/><v:tabList/>5</text>				</g>
			</g>
			<g id="group44-51" transform="translate(365.343,0)" v:mID="44" v:groupContext="group">
				<title>Sheet.44</title>
				<g id="group41-52" v:mID="41" v:groupContext="group">
					<title>Sheet.41</title>
					<g id="shape31-53" v:mID="31" v:groupContext="shape" transform="translate(7.99361E-15,-344.376)">
						<title>Sheet.31</title>
						<desc>3</desc>
						<v:textBlock v:margins="rect(4,4,4,4)"/>
						<v:textRect cx="13.3734" cy="355.639" width="26.75" height="21.7751"/>
						<rect x="0" y="344.751" width="26.7467" height="21.7751" class="st1"/>
						<text x="8.41" y="361.04" class="st2" v:langID="1033"><v:paragraph v:horizAlign="1"/><v:tabList/>3</text>					</g>
					<g id="shape32-56" v:mID="32" v:groupContext="shape" transform="translate(7.99361E-15,-301.329)">
						<title>Sheet.32</title>
						<desc>2</desc>
						<v:textBlock v:margins="rect(4,4,4,4)"/>
						<v:textRect cx="13.3734" cy="355.639" width="26.75" height="21.7751"/>
						<rect x="0" y="344.751" width="26.7467" height="21.7751" class="st1"/>
						<text x="8.35" y="361.04" class="st2" v:langID="1033"><v:paragraph v:horizAlign="1"/><v:tabList/>2</text>					</g>
					<g id="shape33-59" v:mID="33" v:groupContext="shape" transform="translate(7.99361E-15,-258.282)">
						<title>Sheet.33</title>
						<desc>7</desc>
						<v:textBlock v:margins="rect(4,4,4,4)"/>
						<v:textRect cx="13.3734" cy="355.639" width="26.75" height="21.7751"/>
						<rect x="0" y="344.751" width="26.7467" height="21.7751" class="st1"/>
						<text x="8.85" y="361.04" class="st2" v:langID="1033"><v:paragraph v:horizAlign="1"/><v:tabList/>7</text>					</g>
					<g id="shape34-62" v:mID="34" v:groupContext="shape" transform="translate(7.99361E-15,-215.235)">
						<title>Sheet.34</title>
						<desc>8</desc>
						<v:textBlock v:margins="rect(4,4,4,4)"/>
						<v:textRect cx="13.3734" cy="355.639" width="26.75" height="21.7751"/>
						<rect x="0" y="344.751" width="26.7467" height="21.7751" class="st1"/>
						<text x="8.01" y="361.04" class="st2" v:langID="1033"><v:paragraph v:horizAlign="1"/><v:tabList/>8</text>					</g>
					<g id="shape35-65" v:mID="35" v:groupContext="shape" transform="translate(7.99361E-15,-172.188)">
						<title>Sheet.35</title>
						<desc>6</desc>
						<v:textBlock v:margins="rect(4,4,4,4)"/>
						<v:textRect cx="13.3734" cy="355.639" width="26.75" height="21.7751"/>
						<rect x="0" y="344.751" width="26.7467" height="21.7751" class="st1"/>
						<text x="8.28" y="361.04" class="st2" v:langID="1033"><v:paragraph v:horizAlign="1"/><v:tabList/>6</text>					</g>
					<g id="shape36-68" v:mID="36" v:groupContext="shape" transform="translate(7.99361E-15,-129.141)">
						<title>Sheet.36</title>
						<desc>4</desc>
						<v:textBlock v:margins="rect(4,4,4,4)"/>
						<v:textRect cx="13.3734" cy="355.639" width="26.75" height="21.7751"/>
						<rect x="0" y="344.751" width="26.7467" height="21.7751" class="st1"/>
						<text x="8.29" y="361.04" class="st2" v:langID="1033"><v:paragraph v:horizAlign="1"/><v:tabList/>4</text>					</g>
					<g id="shape37-71" v:mID="37" v:groupContext="shape" transform="translate(7.99361E-15,-86.094)">
						<title>Sheet.37</title>
						<desc>1</desc>
						<v:textBlock v:margins="rect(4,4,4,4)"/>
						<v:textRect cx="13.3734" cy="355.639" width="26.75" height="21.7751"/>
						<rect x="0" y="344.751" width="26.7467" height="21.7751" class="st1"/>
						<text x="9.51" y="361.04" class="st2" v:langID="1033"><v:paragraph v:horizAlign="1"/><v:tabList/>1</text>					</g>
					<g id="shape40-74" v:mID="40" v:groupContext="shape" transform="translate(1.92497,-43.7149)">
						<title>Sheet.40</title>
						<desc>5</desc>
						<v:textBlock v:margins="rect(4,4,4,4)"/>
						<v:textRect cx="13.3734" cy="355.639" width="26.75" height="21.7751"/>
						<rect x="0" y="344.751" width="26.7467" height="21.7751" class="st1"/>
						<text x="8.62" y="361.04" class="st2" v:langID="1033"><v:paragraph v:horizAlign="1"/><v:tabList/>5</text>					</g>
				</g>
				<g id="group42-77" transform="translate(40.1201,0)" v:mID="42" v:groupContext="group">
					<title>Sheet.42</title>
					<g id="shape23-78" v:mID="23" v:groupContext="shape" transform="translate(5.94372,-344.376)">
						<title>Sheet.23</title>
						<desc>TD (Transmit Data)</desc>
						<v:textBlock v:margins="rect(4,4,4,4)"/>
						<v:textRect cx="112.931" cy="355.639" width="225.87" height="21.7751"/>
						<rect x="0" y="344.751" width="225.861" height="21.7751" class="st1"/>
						<text x="33.94" y="361.04" class="st2" v:langID="1033"><v:paragraph v:horizAlign="1"/><v:tabList/>TD (Transmit Data)</text>					</g>
					<g id="shape24-81" v:mID="24" v:groupContext="shape" transform="translate(5.94372,-301.329)">
						<title>Sheet.24</title>
						<desc>RD (Receive Data)</desc>
						<v:textBlock v:margins="rect(4,4,4,4)"/>
						<v:textRect cx="112.931" cy="355.639" width="225.87" height="21.7751"/>
						<rect x="0" y="344.751" width="225.861" height="21.7751" class="st1"/>
						<text x="39.3" y="361.04" class="st2" v:langID="1033"><v:paragraph v:horizAlign="1"/><v:tabList/>RD (Receive Data)</text>					</g>
					<g id="shape25-84" v:mID="25" v:groupContext="shape" transform="translate(5.94372,-258.282)">
						<title>Sheet.25</title>
						<desc>RTS (Ready To Send)</desc>
						<v:textBlock v:margins="rect(4,4,4,4)"/>
						<v:textRect cx="112.931" cy="355.639" width="225.87" height="21.7751"/>
						<rect x="0" y="344.751" width="225.861" height="21.7751" class="st1"/>
						<text x="27.63" y="361.04" class="st2" v:langID="1033"><v:paragraph v:horizAlign="1"/><v:tabList/>RTS (Ready To Send)</text>					</g>
					<g id="shape26-87" v:mID="26" v:groupContext="shape" transform="translate(5.94372,-215.235)">
						<title>Sheet.26</title>
						<desc>CTS (Clear To Send)</desc>
						<v:textBlock v:margins="rect(4,4,4,4)"/>
						<v:textRect cx="112.931" cy="355.639" width="225.87" height="21.7751"/>
						<rect x="0" y="344.751" width="225.861" height="21.7751" class="st1"/>
						<text x="32.04" y="361.04" class="st2" v:langID="1033"><v:paragraph v:horizAlign="1"/><v:tabList/>CTS (Clear To Send)</text>					</g>
					<g id="shape27-90" v:mID="27" v:groupContext="shape" transform="translate(5.94372,-172.188)">
						<title>Sheet.27</title>
						<desc>DSR (Data Set Ready)</desc>
						<v:textBlock v:margins="rect(4,4,4,4)"/>
						<v:textRect cx="112.931" cy="355.639" width="225.87" height="21.7751"/>
						<rect x="0" y="344.751" width="225.861" height="21.7751" class="st1"/>
						<text x="25.34" y="361.04" class="st2" v:langID="1033"><v:paragraph v:horizAlign="1"/><v:tabList/>DSR (Data Set Ready)</text>					</g>
					<g id="shape28-93" v:mID="28" v:groupContext="shape" transform="translate(0,-129.141)">
						<title>Sheet.28</title>
						<desc>DTR (Data Terminal Ready)</desc>
						<v:textBlock v:margins="rect(4,4,4,4)"/>
						<v:textRect cx="120.36" cy="355.639" width="240.73" height="21.7751"/>
						<rect x="0" y="344.751" width="240.72" height="21.7751" class="st1"/>
						<text x="8.16" y="361.04" class="st2" v:langID="1033"><v:paragraph v:horizAlign="1"/><v:tabList/>DTR (Data Terminal Ready)</text>					</g>
					<g id="shape29-96" v:mID="29" v:groupContext="shape" transform="translate(5.94372,-86.094)">
						<title>Sheet.29</title>
						<desc>DCD (Data Carrier Decect)</desc>
						<v:textBlock v:margins="rect(4,4,4,4)"/>
						<v:textRect cx="112.931" cy="355.639" width="225.87" height="21.7751"/>
						<rect x="0" y="344.751" width="225.861" height="21.7751" class="st1"/>
						<text x="6.4" y="361.04" class="st2" v:langID="1033"><v:paragraph v:horizAlign="1"/><v:tabList/>DCD (Data Carrier Decect)</text>					</g>
					<g id="shape39-99" v:mID="39" v:groupContext="shape" transform="translate(5.94372,-43.7149)">
						<title>Sheet.39</title>
						<desc>GND (Ground)</desc>
						<v:textBlock v:margins="rect(4,4,4,4)"/>
						<v:textRect cx="112.931" cy="355.639" width="225.87" height="21.7751"/>
						<rect x="0" y="344.751" width="225.861" height="21.7751" class="st1"/>
						<text x="53.11" y="361.04" class="st2" v:langID="1033"><v:paragraph v:horizAlign="1"/><v:tabList/>GND (Ground)</text>					</g>
				</g>
			</g>
			<g id="group52-102" transform="translate(279.355,-310.46)" v:mID="52" v:groupContext="group">
				<title>Sheet.52</title>
				<g id="shape46-103" v:mID="46" v:groupContext="shape" transform="translate(0,-39.1952)">
					<title>Sheet.46</title>
					<path d="M0 366.53 L31.03 366.53" class="st3"/>
				</g>
				<g id="shape47-106" v:mID="47" v:groupContext="shape">
					<title>Sheet.47</title>
					<path d="M0 366.53 L31.03 366.53" class="st3"/>
				</g>
				<g id="shape48-109" v:mID="48" v:groupContext="shape" transform="translate(56.8849,-39.1952)">
					<title>Sheet.48</title>
					<path d="M0 366.53 L31.03 366.53" class="st3"/>
				</g>
				<g id="shape49-112" v:mID="49" v:groupContext="shape" transform="translate(56.8849,0)">
					<title>Sheet.49</title>
					<path d="M0 366.53 L31.03 366.53" class="st3"/>
				</g>
				<g id="shape50-115" v:mID="50" v:groupContext="shape" transform="translate(-274.921,164.694) rotate(-56.5875)">
					<title>Sheet.50</title>
					<path d="M0 366.53 L46.96 366.53" class="st3"/>
				</g>
				<g id="shape51-118" v:mID="51" v:groupContext="shape" transform="translate(336.978,125.498) rotate(56.5875)">
					<title>Sheet.51</title>
					<path d="M0 366.53 L46.96 366.53" class="st3"/>
				</g>
			</g>
			<g id="group53-121" transform="translate(278.392,-222.271)" v:mID="53" v:groupContext="group">
				<title>Sheet.53</title>
				<g id="shape54-122" v:mID="54" v:groupContext="shape" transform="translate(0,-39.1952)">
					<title>Sheet.54</title>
					<path d="M0 366.53 L31.03 366.53" class="st3"/>
				</g>
				<g id="shape55-125" v:mID="55" v:groupContext="shape">
					<title>Sheet.55</title>
					<path d="M0 366.53 L31.03 366.53" class="st3"/>
				</g>
				<g id="shape56-128" v:mID="56" v:groupContext="shape" transform="translate(56.8849,-39.1952)">
					<title>Sheet.56</title>
					<path d="M0 366.53 L31.03 366.53" class="st3"/>
				</g>
				<g id="shape57-131" v:mID="57" v:groupContext="shape" transform="translate(56.8849,0)">
					<title>Sheet.57</title>
					<path d="M0 366.53 L31.03 366.53" class="st3"/>
				</g>
				<g id="shape58-134" v:mID="58" v:groupContext="shape" transform="translate(-274.921,164.694) rotate(-56.5875)">
					<title>Sheet.58</title>
					<path d="M0 366.53 L46.96 366.53" class="st3"/>
				</g>
				<g id="shape59-137" v:mID="59" v:groupContext="shape" transform="translate(336.978,125.498) rotate(56.5875)">
					<title>Sheet.59</title>
					<path d="M0 366.53 L46.96 366.53" class="st3"/>
				</g>
			</g>
			<g id="group60-140" transform="translate(278.392,-138.981)" v:mID="60" v:groupContext="group">
				<title>Sheet.60</title>
				<g id="shape61-141" v:mID="61" v:groupContext="shape" transform="translate(0,-39.1952)">
					<title>Sheet.61</title>
					<path d="M0 366.53 L31.03 366.53" class="st3"/>
				</g>
				<g id="shape62-144" v:mID="62" v:groupContext="shape">
					<title>Sheet.62</title>
					<path d="M0 366.53 L31.03 366.53" class="st3"/>
				</g>
				<g id="shape63-147" v:mID="63" v:groupContext="shape" transform="translate(56.8849,-39.1952)">
					<title>Sheet.63</title>
					<path d="M0 366.53 L31.03 366.53" class="st3"/>
				</g>
				<g id="shape64-150" v:mID="64" v:groupContext="shape" transform="translate(56.8849,0)">
					<title>Sheet.64</title>
					<path d="M0 366.53 L31.03 366.53" class="st3"/>
				</g>
				<g id="shape65-153" v:mID="65" v:groupContext="shape" transform="translate(-274.921,164.694) rotate(-56.5875)">
					<title>Sheet.65</title>
					<path d="M0 366.53 L46.96 366.53" class="st3"/>
				</g>
				<g id="shape66-156" v:mID="66" v:groupContext="shape" transform="translate(336.978,125.498) rotate(56.5875)">
					<title>Sheet.66</title>
					<path d="M0 366.53 L46.96 366.53" class="st3"/>
				</g>
			</g>
			<g id="shape67-159" v:mID="67" v:groupContext="shape" transform="translate(280.643,-55.6912)">
				<title>Sheet.67</title>
				<path d="M0 366.53 L86.62 366.53" class="st3"/>
			</g>
			<g id="shape68-162" v:mID="68" v:groupContext="shape" transform="translate(661.794,188.35) rotate(90)">
				<title>Sheet.68</title>
				<path d="M2.63 366.53 L2.99 366.53 L83.29 366.53" class="st4"/>
			</g>
			<g id="shape69-168" v:mID="69" v:groupContext="shape" transform="translate(278.393,-94.8864)">
				<title>Sheet.69</title>
				<path d="M0 366.53 L16.87 366.53" class="st3"/>
			</g>
			<g id="shape70-171" v:mID="70" v:groupContext="shape" transform="translate(715.794,188.35) rotate(90)">
				<title>Sheet.70</title>
				<path d="M2.63 366.53 L2.99 366.53 L83.29 366.53" class="st4"/>
			</g>
			<g id="shape72-176" v:mID="72" v:groupContext="shape" transform="translate(349.268,-94.8864)">
				<title>Sheet.72</title>
				<path d="M0 366.53 L16.87 366.53" class="st3"/>
			</g>
		</g>
	</g>
</svg>
