<?xml version="1.0" encoding="UTF-8" standalone="no"?>
<!DOCTYPE svg PUBLIC "-//W3C//DTD SVG 1.1//EN" "http://www.w3.org/Graphics/SVG/1.1/DTD/svg11.dtd">
<!-- Generated by Microsoft Visio, SVG Export serial-communication-self-handshake.svg Page-1 -->
<svg xmlns="http://www.w3.org/2000/svg" xmlns:xlink="http://www.w3.org/1999/xlink" xmlns:ev="http://www.w3.org/2001/xml-events"
		width="8.93709in" height="5.09064in" viewBox="0 0 643.47 366.526" xml:space="preserve" color-interpolation-filters="sRGB"
		class="st6">
	<style type="text/css">
	<![CDATA[
		.st1 {fill:none;stroke:none;stroke-linecap:round;stroke-linejoin:round;stroke-width:0.75}
		.st2 {fill:#000000;font-family:Georgia;font-size:1.5em}
		.st3 {stroke:#000000;stroke-linecap:round;stroke-linejoin:round;stroke-width:0.75}
		.st4 {marker-start:url(#mrkr10-99);stroke:#000000;stroke-linecap:round;stroke-linejoin:round;stroke-width:0.75}
		.st5 {fill:#000000;fill-opacity:1;stroke:#000000;stroke-opacity:1;stroke-width:0.18796992481203}
		.st6 {fill:none;fill-rule:evenodd;font-size:12px;overflow:visible;stroke-linecap:square;stroke-miterlimit:3}
	]]>
	</style>

	<defs id="Markers">
		<g id="lend10">
			<path
					d="M 0 0.75 C -0.414214 0.75 -0.75 0.414214 -0.75 0 -0.75 -0.414214 -0.414214 -0.75 0 -0.75 0.414214 -0.75 0.75 -0.414214 0.75 0 0.75 0.414214 0.414214 0.75 0 0.75 Z "
					style="stroke:none"/>
		</g>
		<marker id="mrkr10-99" class="st5" refX="3.51" orient="auto" markerUnits="strokeWidth" overflow="visible">
			<use xlink:href="#lend10" transform="scale(5.32) "/>
		</marker>
	</defs>
	<g>
		<title>Page-1</title>
		<g id="group75-1" transform="translate(5.82771,0)">
			<title>Sheet.75</title>
			<g id="group21-2">
				<title>Sheet.21</title>
				<g id="shape2-3" transform="translate(5.94372,-344.376)">
					<title>Sheet.2</title>
					<desc>TD (Transmit Data)</desc>
					<rect x="0" y="344.751" width="225.861" height="21.7751" class="st1"/>
					<text x="33.94" y="361.04" class="st2">TD (Transmit Data)</text>				</g>
				<g id="shape4-6" transform="translate(5.94372,-301.329)">
					<title>Sheet.4</title>
					<desc>RD (Receive Data)</desc>
					<rect x="0" y="344.751" width="225.861" height="21.7751" class="st1"/>
					<text x="39.3" y="361.04" class="st2">RD (Receive Data)</text>				</g>
				<g id="shape5-9" transform="translate(5.94372,-258.282)">
					<title>Sheet.5</title>
					<desc>RTS (Ready To Send)</desc>
					<rect x="0" y="344.751" width="225.861" height="21.7751" class="st1"/>
					<text x="27.63" y="361.04" class="st2">RTS (Ready To Send)</text>				</g>
				<g id="shape6-12" transform="translate(5.94372,-215.235)">
					<title>Sheet.6</title>
					<desc>CTS (Clear To Send)</desc>
					<rect x="0" y="344.751" width="225.861" height="21.7751" class="st1"/>
					<text x="32.04" y="361.04" class="st2">CTS (Clear To Send)</text>				</g>
				<g id="shape7-15" transform="translate(5.94372,-172.188)">
					<title>Sheet.7</title>
					<desc>DSR (Data Set Ready)</desc>
					<rect x="0" y="344.751" width="225.861" height="21.7751" class="st1"/>
					<text x="25.34" y="361.04" class="st2">DSR (Data Set Ready)</text>				</g>
				<g id="shape8-18" transform="translate(-5.45271,-129.141)">
					<title>Sheet.8</title>
					<desc>DTR (Data Terminal Ready)</desc>
					<rect x="0" y="344.751" width="244.096" height="21.7751" class="st1"/>
					<text x="9.85" y="361.04" class="st2">DTR (Data Terminal Ready)</text>				</g>
				<g id="shape9-21" transform="translate(5.94372,-86.094)">
					<title>Sheet.9</title>
					<desc>DCD (Data Carrier Decect)</desc>
					<rect x="0" y="344.751" width="225.861" height="21.7751" class="st1"/>
					<text x="6.4" y="361.04" class="st2">DCD (Data Carrier Decect)</text>				</g>
				<g id="shape11-24" transform="translate(252.608,-344.376)">
					<title>Sheet.11</title>
					<desc>3</desc>
					<rect x="0" y="344.751" width="26.7467" height="21.7751" class="st1"/>
					<text x="8.41" y="361.04" class="st2">3</text>				</g>
				<g id="shape12-27" transform="translate(252.608,-301.329)">
					<title>Sheet.12</title>
					<desc>2</desc>
					<rect x="0" y="344.751" width="26.7467" height="21.7751" class="st1"/>
					<text x="8.35" y="361.04" class="st2">2</text>				</g>
				<g id="shape13-30" transform="translate(252.608,-258.282)">
					<title>Sheet.13</title>
					<desc>7</desc>
					<rect x="0" y="344.751" width="26.7467" height="21.7751" class="st1"/>
					<text x="8.85" y="361.04" class="st2">7</text>				</g>
				<g id="shape14-33" transform="translate(252.608,-215.235)">
					<title>Sheet.14</title>
					<desc>8</desc>
					<rect x="0" y="344.751" width="26.7467" height="21.7751" class="st1"/>
					<text x="8.01" y="361.04" class="st2">8</text>				</g>
				<g id="shape15-36" transform="translate(252.608,-172.188)">
					<title>Sheet.15</title>
					<desc>6</desc>
					<rect x="0" y="344.751" width="26.7467" height="21.7751" class="st1"/>
					<text x="8.28" y="361.04" class="st2">6</text>				</g>
				<g id="shape16-39" transform="translate(252.608,-129.141)">
					<title>Sheet.16</title>
					<desc>4</desc>
					<rect x="0" y="344.751" width="26.7467" height="21.7751" class="st1"/>
					<text x="8.29" y="361.04" class="st2">4</text>				</g>
				<g id="shape17-42" transform="translate(252.608,-86.094)">
					<title>Sheet.17</title>
					<desc>1</desc>
					<rect x="0" y="344.751" width="26.7467" height="21.7751" class="st1"/>
					<text x="9.51" y="361.04" class="st2">1</text>				</g>
				<g id="shape19-45" transform="translate(-2.08695,-43.7149)">
					<title>Sheet.19</title>
					<desc>GND (Ground)</desc>
					<rect x="0" y="344.751" width="225.861" height="21.7751" class="st1"/>
					<text x="53.11" y="361.04" class="st2">GND (Ground)</text>				</g>
				<g id="shape20-48" transform="translate(250.521,-43.7149)">
					<title>Sheet.20</title>
					<desc>5</desc>
					<rect x="0" y="344.751" width="26.7467" height="21.7751" class="st1"/>
					<text x="8.62" y="361.04" class="st2">5</text>				</g>
			</g>
			<g id="shape31-51" transform="translate(365.343,-344.376)">
				<title>Sheet.31</title>
				<desc>3</desc>
				<rect x="0" y="344.751" width="26.7467" height="21.7751" class="st1"/>
				<text x="8.41" y="361.04" class="st2">3</text>			</g>
			<g id="shape32-54" transform="translate(365.343,-301.329)">
				<title>Sheet.32</title>
				<desc>2</desc>
				<rect x="0" y="344.751" width="26.7467" height="21.7751" class="st1"/>
				<text x="8.35" y="361.04" class="st2">2</text>			</g>
			<g id="shape40-57" transform="translate(367.268,-43.7149)">
				<title>Sheet.40</title>
				<desc>5</desc>
				<rect x="0" y="344.751" width="26.7467" height="21.7751" class="st1"/>
				<text x="8.62" y="361.04" class="st2">5</text>			</g>
			<g id="shape23-60" transform="translate(411.406,-344.376)">
				<title>Sheet.23</title>
				<desc>TD (Transmit Data)</desc>
				<rect x="0" y="344.751" width="225.861" height="21.7751" class="st1"/>
				<text x="33.94" y="361.04" class="st2">TD (Transmit Data)</text>			</g>
			<g id="shape24-63" transform="translate(411.406,-301.329)">
				<title>Sheet.24</title>
				<desc>RD (Receive Data)</desc>
				<rect x="0" y="344.751" width="225.861" height="21.7751" class="st1"/>
				<text x="39.3" y="361.04" class="st2">RD (Receive Data)</text>			</g>
			<g id="shape39-66" transform="translate(411.406,-43.7149)">
				<title>Sheet.39</title>
				<desc>GND (Ground)</desc>
				<rect x="0" y="344.751" width="225.861" height="21.7751" class="st1"/>
				<text x="53.11" y="361.04" class="st2">GND (Ground)</text>			</g>
			<g id="group52-69" transform="translate(279.355,-310.46)">
				<title>Sheet.52</title>
				<g id="shape46-70" transform="translate(0,-39.1952)">
					<title>Sheet.46</title>
					<path d="M0 366.53 L31.03 366.53" class="st3"/>
				</g>
				<g id="shape47-73">
					<title>Sheet.47</title>
					<path d="M0 366.53 L31.03 366.53" class="st3"/>
				</g>
				<g id="shape48-76" transform="translate(56.8849,-39.1952)">
					<title>Sheet.48</title>
					<path d="M0 366.53 L31.03 366.53" class="st3"/>
				</g>
				<g id="shape49-79" transform="translate(56.8849,0)">
					<title>Sheet.49</title>
					<path d="M0 366.53 L31.03 366.53" class="st3"/>
				</g>
				<g id="shape50-82" transform="translate(-274.921,164.694) rotate(-56.5875)">
					<title>Sheet.50</title>
					<path d="M0 366.53 L46.96 366.53" class="st3"/>
				</g>
				<g id="shape51-85" transform="translate(336.978,125.498) rotate(56.5875)">
					<title>Sheet.51</title>
					<path d="M0 366.53 L46.96 366.53" class="st3"/>
				</g>
			</g>
			<g id="shape67-88" transform="translate(280.643,-55.6912)">
				<title>Sheet.67</title>
				<path d="M0 366.53 L86.62 366.53" class="st3"/>
			</g>
			<g id="shape68-91" transform="translate(693.294,182.026) rotate(90)">
				<title>Sheet.68</title>
				<path d="M0 366.53 L89.61 366.53" class="st3"/>
			</g>
			<g id="shape69-94" transform="translate(326.768,638.166) rotate(180)">
				<title>Sheet.69</title>
				<path d="M2.63 366.53 L2.99 366.53 L48.38 366.53" class="st4"/>
			</g>
			<g id="shape70-100" transform="translate(327.73,593.553) rotate(180)">
				<title>Sheet.70</title>
				<path d="M2.63 366.53 L2.99 366.53 L48.38 366.53" class="st4"/>
			</g>
			<g id="shape71-105" transform="translate(326.768,548.553) rotate(180)">
				<title>Sheet.71</title>
				<path d="M2.63 366.53 L2.99 366.53 L48.38 366.53" class="st4"/>
			</g>
			<g id="shape72-110" transform="translate(326.605,508.053) rotate(180)">
				<title>Sheet.72</title>
				<path d="M2.63 366.53 L2.99 366.53 L48.38 366.53" class="st4"/>
			</g>
			<g id="shape73-115" transform="translate(325.643,463.053) rotate(180)">
				<title>Sheet.73</title>
				<path d="M2.63 366.53 L2.99 366.53 L48.38 366.53" class="st4"/>
			</g>
			<g id="shape74-120" transform="translate(692.085,88.6929) rotate(88.7754)">
				<title>Sheet.74</title>
				<path d="M0 366.53 L45.01 366.53" class="st3"/>
			</g>
		</g>
	</g>
</svg>
